<mxfile host="app.diagrams.net" agent="Mozilla/5.0 (Windows NT 10.0; Win64; x64) AppleWebKit/537.36 (KHTML, like Gecko) Chrome/137.0.0.0 Safari/537.36" version="27.1.6">
  <diagram id="C5RBs43oDa-KdzZeNtuy" name="Page-1">
    <mxGraphModel dx="827" dy="487" grid="1" gridSize="10" guides="1" tooltips="1" connect="1" arrows="1" fold="1" page="1" pageScale="1" pageWidth="1169" pageHeight="827" math="0" shadow="0">
      <root>
        <mxCell id="WIyWlLk6GJQsqaUBKTNV-0" />
        <mxCell id="WIyWlLk6GJQsqaUBKTNV-1" parent="WIyWlLk6GJQsqaUBKTNV-0" />
        <mxCell id="pnr4vhL3Si44gzMGue-J-14" style="edgeStyle=orthogonalEdgeStyle;rounded=0;orthogonalLoop=1;jettySize=auto;html=1;exitX=1;exitY=0.5;exitDx=0;exitDy=0;entryX=0;entryY=0.5;entryDx=0;entryDy=0;" edge="1" parent="WIyWlLk6GJQsqaUBKTNV-1" source="pnr4vhL3Si44gzMGue-J-0" target="pnr4vhL3Si44gzMGue-J-1">
          <mxGeometry relative="1" as="geometry" />
        </mxCell>
        <mxCell id="pnr4vhL3Si44gzMGue-J-0" value="Input" style="rounded=1;whiteSpace=wrap;html=1;fillColor=#f5f5f5;fontColor=#333333;strokeColor=#666666;" vertex="1" parent="WIyWlLk6GJQsqaUBKTNV-1">
          <mxGeometry x="80" y="240" width="70" height="30" as="geometry" />
        </mxCell>
        <mxCell id="pnr4vhL3Si44gzMGue-J-4" style="edgeStyle=orthogonalEdgeStyle;rounded=0;orthogonalLoop=1;jettySize=auto;html=1;exitX=1;exitY=0.5;exitDx=0;exitDy=0;" edge="1" parent="WIyWlLk6GJQsqaUBKTNV-1" source="pnr4vhL3Si44gzMGue-J-5">
          <mxGeometry relative="1" as="geometry">
            <mxPoint x="530" y="254.76923076923072" as="targetPoint" />
          </mxGeometry>
        </mxCell>
        <mxCell id="pnr4vhL3Si44gzMGue-J-1" value="Classifier" style="rounded=0;whiteSpace=wrap;html=1;strokeWidth=2;fillColor=#dae8fc;strokeColor=#6c8ebf;" vertex="1" parent="WIyWlLk6GJQsqaUBKTNV-1">
          <mxGeometry x="200" y="225" width="120" height="60" as="geometry" />
        </mxCell>
        <mxCell id="pnr4vhL3Si44gzMGue-J-2" value="" style="endArrow=classic;html=1;rounded=0;exitX=0.5;exitY=1;exitDx=0;exitDy=0;entryX=0;entryY=0.5;entryDx=0;entryDy=0;" edge="1" parent="WIyWlLk6GJQsqaUBKTNV-1" source="pnr4vhL3Si44gzMGue-J-1" target="pnr4vhL3Si44gzMGue-J-12">
          <mxGeometry width="50" height="50" relative="1" as="geometry">
            <mxPoint x="430" y="300" as="sourcePoint" />
            <mxPoint x="530" y="340" as="targetPoint" />
            <Array as="points">
              <mxPoint x="260" y="320" />
              <mxPoint x="260" y="335" />
            </Array>
          </mxGeometry>
        </mxCell>
        <mxCell id="pnr4vhL3Si44gzMGue-J-3" value="Rain&lt;sub&gt;t+1&lt;/sub&gt;&amp;nbsp;= 0" style="text;html=1;align=center;verticalAlign=middle;whiteSpace=wrap;rounded=0;" vertex="1" parent="WIyWlLk6GJQsqaUBKTNV-1">
          <mxGeometry x="320" y="300" width="80" height="40" as="geometry" />
        </mxCell>
        <mxCell id="pnr4vhL3Si44gzMGue-J-10" style="edgeStyle=orthogonalEdgeStyle;rounded=0;orthogonalLoop=1;jettySize=auto;html=1;exitX=1;exitY=0.5;exitDx=0;exitDy=0;entryX=0;entryY=0.5;entryDx=0;entryDy=0;" edge="1" parent="WIyWlLk6GJQsqaUBKTNV-1" source="pnr4vhL3Si44gzMGue-J-5" target="pnr4vhL3Si44gzMGue-J-13">
          <mxGeometry relative="1" as="geometry">
            <mxPoint x="650" y="254.76923076923072" as="targetPoint" />
          </mxGeometry>
        </mxCell>
        <mxCell id="pnr4vhL3Si44gzMGue-J-9" value="Rain&lt;sub&gt;t+1&lt;/sub&gt;&amp;nbsp;= 1" style="text;html=1;align=center;verticalAlign=middle;whiteSpace=wrap;rounded=0;" vertex="1" parent="WIyWlLk6GJQsqaUBKTNV-1">
          <mxGeometry x="320" y="220" width="80" height="45" as="geometry" />
        </mxCell>
        <mxCell id="pnr4vhL3Si44gzMGue-J-12" value="Precip&lt;sub&gt;t+1&lt;/sub&gt;&amp;nbsp;= 0" style="rounded=1;whiteSpace=wrap;html=1;fillColor=#f5f5f5;fontColor=#333333;strokeColor=#666666;" vertex="1" parent="WIyWlLk6GJQsqaUBKTNV-1">
          <mxGeometry x="427.5" y="320" width="85" height="30" as="geometry" />
        </mxCell>
        <mxCell id="pnr4vhL3Si44gzMGue-J-13" value="Precip&lt;sub&gt;t+1&lt;/sub&gt;&amp;nbsp;&amp;gt; 0&amp;nbsp;" style="rounded=1;whiteSpace=wrap;html=1;fillColor=#f5f5f5;fontColor=#333333;strokeColor=#666666;" vertex="1" parent="WIyWlLk6GJQsqaUBKTNV-1">
          <mxGeometry x="580" y="240" width="85" height="30" as="geometry" />
        </mxCell>
        <mxCell id="pnr4vhL3Si44gzMGue-J-15" value="" style="edgeStyle=orthogonalEdgeStyle;rounded=0;orthogonalLoop=1;jettySize=auto;html=1;exitX=1;exitY=0.5;exitDx=0;exitDy=0;" edge="1" parent="WIyWlLk6GJQsqaUBKTNV-1" source="pnr4vhL3Si44gzMGue-J-1" target="pnr4vhL3Si44gzMGue-J-5">
          <mxGeometry relative="1" as="geometry">
            <mxPoint x="530" y="254.76923076923072" as="targetPoint" />
            <mxPoint x="320" y="255" as="sourcePoint" />
          </mxGeometry>
        </mxCell>
        <mxCell id="pnr4vhL3Si44gzMGue-J-5" value="Regressor" style="rounded=0;whiteSpace=wrap;html=1;fillColor=#dae8fc;strokeColor=#6c8ebf;strokeWidth=2;" vertex="1" parent="WIyWlLk6GJQsqaUBKTNV-1">
          <mxGeometry x="410" y="225" width="120" height="60" as="geometry" />
        </mxCell>
      </root>
    </mxGraphModel>
  </diagram>
</mxfile>
